<svg width="1364" height="216" viewBox="0 0 1364 216" fill="none" xmlns="http://www.w3.org/2000/svg">
<g filter="url(#filter0_d)">
<mask id="path-1-outside-1" maskUnits="userSpaceOnUse" x="-42.3999" y="0.400024" width="1402" height="201" fill="black">
<rect fill="white" x="-42.3999" y="0.400024" width="1402" height="201"/>
<path d="M59.2001 94.8C80.0001 97.4 94.9001 103.1 103.9 111.9C112.9 120.5 117.4 130.8 117.4 142.8C117.4 152.4 114.6 160.9 109 168.3C103.6 175.7 95.7001 181.5 85.3001 185.7C74.9001 189.9 62.6001 192 48.4001 192C43.4001 192 39.1001 191.9 35.5001 191.7C23.1001 191.3 11.2001 191.1 -0.199902 191.1C-16.5999 191.1 -28.9999 191.4 -37.3999 192V186C-30.1999 185.6 -24.9999 184.8 -21.7999 183.6C-18.3999 182.4 -16.0999 180.1 -14.8999 176.7C-13.6999 173.3 -13.0999 167.8 -13.0999 160.2V41.4C-13.0999 33.8 -13.6999 28.3 -14.8999 24.9C-16.0999 21.5 -18.3999 19.2 -21.7999 18C-24.9999 16.8 -30.1999 16 -37.3999 15.6V9.60002C-28.9999 10.2 -16.7999 10.5 -0.799904 10.5L29.8001 10.2C33.2001 10 37.1001 9.90001 41.5001 9.90001C60.9001 9.90001 75.8001 13.7 86.2001 21.3C96.6001 28.7 101.8 38.6 101.8 51C101.8 60.6 98.4001 69.2 91.6001 76.8C84.8001 84.4 74.0001 90.2 59.2001 94.2V94.8ZM34.0001 15.6C28.6001 15.6 24.5001 16.3 21.7001 17.7C19.1001 19.1 17.3001 21.6 16.3001 25.2C15.3001 28.8 14.8001 34.2 14.8001 41.4V94.2H31.9001C47.3001 94.2 58.0001 90.7 64.0001 83.7C70.0001 76.7 73.0001 66.9 73.0001 54.3C73.0001 41.3 69.9001 31.6 63.7001 25.2C57.5001 18.8 47.6001 15.6 34.0001 15.6ZM34.3001 185.1C52.5001 185.1 65.9001 181.5 74.5001 174.3C83.1001 166.9 87.4001 156 87.4001 141.6C87.4001 127.6 83.4001 117.1 75.4001 110.1C67.4001 102.9 54.6001 99.3 37.0001 99.3H14.8001V160.2C14.8001 167.4 15.3001 172.7 16.3001 176.1C17.3001 179.5 19.1001 181.9 21.7001 183.3C24.5001 184.5 28.7001 185.1 34.3001 185.1Z"/>
<path d="M288.618 156.6C288.618 167 289.318 178.8 290.718 192C277.718 191.4 255.818 191.1 225.018 191.1C188.018 191.1 160.018 191.4 141.018 192V186C148.218 185.6 153.418 184.8 156.618 183.6C160.018 182.4 162.318 180.1 163.518 176.7C164.718 173.3 165.318 167.8 165.318 160.2V41.4C165.318 33.8 164.718 28.3 163.518 24.9C162.318 21.5 160.018 19.2 156.618 18C153.418 16.8 148.218 16 141.018 15.6V9.60002C160.018 10.2 188.018 10.5 225.018 10.5C253.018 10.5 272.918 10.2 284.718 9.60002C283.318 21.6 282.618 32.4 282.618 42C282.618 49.8 282.918 56 283.518 60.6H276.618C275.218 44.2 271.718 32.8 266.118 26.4C260.718 19.8 251.818 16.5 239.418 16.5H217.518C210.318 16.5 205.018 17.1 201.618 18.3C198.418 19.3 196.218 21.5 195.018 24.9C193.818 28.3 193.218 33.8 193.218 41.4V97.2H218.118C224.518 97.2 229.418 95.6 232.818 92.4C236.218 89 238.518 85.4 239.718 81.6C240.918 77.6 242.018 72.6 243.018 66.6H249.918C249.318 73.4 249.018 80.8 249.018 88.8V100.2C249.018 108 249.618 119.2 250.818 133.8H243.918C242.718 124.2 240.418 116.7 237.018 111.3C233.618 105.9 227.318 103.2 218.118 103.2H193.218V160.2C193.218 167.8 193.818 173.3 195.018 176.7C196.218 180.1 198.418 182.4 201.618 183.6C205.018 184.6 210.318 185.1 217.518 185.1H239.418C249.418 185.1 257.318 183.5 263.118 180.3C268.918 177.1 273.318 172 276.318 165C279.318 157.8 281.418 147.8 282.618 135H289.518C288.918 140.4 288.618 147.6 288.618 156.6Z"/>
<path d="M471.836 166.8C477.236 179.2 484.136 185.6 492.536 186V192C484.536 191.4 473.836 191.1 460.436 191.1C443.236 191.1 430.436 191.4 422.036 192V186C429.436 185.6 434.836 184.6 438.236 183C441.836 181.4 443.636 178.7 443.636 174.9C443.636 171.7 442.236 167 439.436 160.8L424.136 126.6H351.236L341.036 149.1C337.636 156.9 335.936 163.3 335.936 168.3C335.936 173.5 337.736 177.6 341.336 180.6C345.136 183.4 351.136 185.2 359.336 186V192C353.336 191.4 344.236 191.1 332.036 191.1C319.836 191.1 311.136 191.4 305.936 192V186C311.336 184.6 315.936 181.6 319.736 177C323.536 172.2 327.136 165.9 330.536 158.1L396.836 8.10002H401.636L471.836 166.8ZM421.736 120.6L387.836 44.4L353.636 120.6H421.736Z"/>
<path d="M673.103 15.6C666.103 16 660.903 17.1 657.503 18.9C654.103 20.5 651.803 23.3 650.603 27.3C649.403 31.1 648.803 36.8 648.803 44.4V110.7C648.803 124.5 647.803 136.3 645.803 146.1C644.003 155.7 640.903 164.1 636.503 171.3C631.703 178.9 624.703 185 615.503 189.6C606.503 194 596.203 196.2 584.603 196.2C564.003 196.2 548.203 191.8 537.203 183C528.403 175.2 522.503 166.3 519.503 156.3C516.503 146.3 515.003 131.4 515.003 111.6V41.4C515.003 33.8 514.403 28.3 513.203 24.9C512.003 21.5 509.703 19.2 506.303 18C503.103 16.8 497.903 16 490.703 15.6V9.60002C499.103 10.2 511.903 10.5 529.103 10.5C545.103 10.5 557.803 10.2 567.203 9.60002V15.6C560.003 16 554.703 16.8 551.303 18C548.103 19.2 545.903 21.5 544.703 24.9C543.503 28.3 542.903 33.8 542.903 41.4V116.7C542.903 131.5 543.903 143.8 545.903 153.6C547.903 163.2 552.103 171 558.503 177C565.103 182.8 574.703 185.7 587.303 185.7C607.303 185.7 621.403 179.4 629.603 166.8C637.803 154.2 641.903 136.6 641.903 114V44.4C641.903 33.6 639.903 26.2 635.903 22.2C632.103 18.2 625.003 16 614.603 15.6V9.60002C621.803 10.2 632.003 10.5 645.203 10.5C657.203 10.5 666.503 10.2 673.103 9.60002V15.6Z"/>
<path d="M859.764 9.60002C858.364 22.8 857.664 34.6 857.664 45C857.664 55.4 857.964 63.6 858.564 69.6H851.664C850.464 55.6 848.564 44.9 845.964 37.5C843.364 30.1 839.164 24.8 833.364 21.6C827.564 18.2 819.264 16.5 808.464 16.5H789.264V157.2C789.264 165.6 790.064 171.7 791.664 175.5C793.264 179.3 796.064 181.9 800.064 183.3C804.064 184.7 810.564 185.6 819.564 186V192C809.164 191.4 794.464 191.1 775.464 191.1C755.464 191.1 740.664 191.4 731.064 192V186C740.064 185.6 746.564 184.7 750.564 183.3C754.564 181.9 757.364 179.3 758.964 175.5C760.564 171.7 761.364 165.6 761.364 157.2V16.5H742.164C731.364 16.5 723.064 18.2 717.264 21.6C711.464 24.8 707.264 30.1 704.664 37.5C702.064 44.9 700.164 55.6 698.964 69.6H692.064C692.664 63.2 692.964 55 692.964 45C692.964 34.6 692.264 22.8 690.864 9.60002C707.464 10.2 735.664 10.5 775.464 10.5C815.064 10.5 843.164 10.2 859.764 9.60002Z"/>
<path d="M1015.72 10.8C1027.12 10.8 1034.82 10.4 1038.82 9.60002V15.9C1035.42 16.7 1032.32 18.6 1029.52 21.6C1026.72 24.6 1023.42 29.5 1019.62 36.3L972.522 120.6V160.2C972.522 167.8 973.122 173.3 974.322 176.7C975.522 180.1 977.722 182.4 980.922 183.6C984.322 184.8 989.622 185.6 996.822 186V192C987.622 191.4 974.922 191.1 958.722 191.1C941.522 191.1 928.722 191.4 920.322 192V186C927.522 185.6 932.722 184.8 935.922 183.6C939.322 182.4 941.622 180.1 942.822 176.7C944.022 173.3 944.622 167.8 944.622 160.2V129L886.722 32.7C882.922 26.3 879.722 22.1 877.122 20.1C874.722 17.9 872.122 16.5 869.322 15.9V9.60002C882.122 10.4 890.922 10.8 895.722 10.8C909.522 10.8 923.522 10.4 937.722 9.60002V15.9C930.922 15.9 925.722 16.5 922.122 17.7C918.522 18.7 916.722 21.1 916.722 24.9C916.722 28.3 918.422 33 921.822 39L967.122 114.6L1004.32 49.2C1008.72 41.2 1010.92 34.8 1010.92 30C1010.92 21.6 1004.02 16.9 990.222 15.9V9.60002C997.622 10.4 1006.12 10.8 1015.72 10.8Z"/>
<path d="M1196.62 15.6C1189.42 16 1184.12 16.8 1180.72 18C1177.52 19.2 1175.32 21.5 1174.12 24.9C1172.92 28.3 1172.32 33.8 1172.32 41.4V160.2C1172.32 167.8 1172.92 173.3 1174.12 176.7C1175.32 180.1 1177.52 182.4 1180.72 183.6C1184.12 184.8 1189.42 185.6 1196.62 186V192C1187.42 191.4 1174.72 191.1 1158.52 191.1C1141.32 191.1 1128.52 191.4 1120.12 192V186C1127.32 185.6 1132.52 184.8 1135.72 183.6C1139.12 182.4 1141.42 180.1 1142.62 176.7C1143.82 173.3 1144.42 167.8 1144.42 160.2V41.4C1144.42 33.8 1143.82 28.3 1142.62 24.9C1141.42 21.5 1139.12 19.2 1135.72 18C1132.52 16.8 1127.32 16 1120.12 15.6V9.60002C1128.52 10.2 1141.32 10.5 1158.52 10.5C1174.52 10.5 1187.22 10.2 1196.62 9.60002V15.6Z"/>
<path d="M1285.98 5.40002C1294.78 5.40002 1301.68 6.40001 1306.68 8.40001C1311.88 10.2 1317.18 12.9 1322.58 16.5C1326.98 19.3 1330.38 20.7 1332.78 20.7C1334.58 20.7 1335.98 19.7 1336.98 17.7C1337.98 15.5 1338.78 12.1 1339.38 7.50003H1346.28C1345.28 17.9 1344.78 36.3 1344.78 62.7H1337.88C1336.68 48.3 1331.98 36.1 1323.78 26.1C1315.78 16.1 1304.08 11.1 1288.68 11.1C1278.08 11.1 1269.28 13.9 1262.28 19.5C1255.48 25.1 1252.08 32.2 1252.08 40.8C1252.08 47 1253.58 52.4 1256.58 57C1259.78 61.6 1263.78 65.6 1268.58 69C1273.58 72.2 1280.58 76.2 1289.58 81L1299.48 86.4C1311.88 93 1321.78 98.9 1329.18 104.1C1336.78 109.3 1342.88 115.3 1347.48 122.1C1352.08 128.7 1354.38 136.4 1354.38 145.2C1354.38 161.4 1348.48 174 1336.68 183C1325.08 191.8 1310.48 196.2 1292.88 196.2C1283.28 196.2 1275.38 195.2 1269.18 193.2C1263.18 191.2 1257.38 188.5 1251.78 185.1C1247.38 182.3 1243.98 180.9 1241.58 180.9C1239.78 180.9 1238.38 182 1237.38 184.2C1236.38 186.2 1235.58 189.5 1234.98 194.1H1228.08C1228.88 184.3 1229.28 162.3 1229.28 128.1H1236.18C1237.58 146.7 1242.58 161.7 1251.18 173.1C1259.78 184.5 1272.98 190.2 1290.78 190.2C1300.78 190.2 1309.38 187.4 1316.58 181.8C1323.98 176 1327.68 167.5 1327.68 156.3C1327.68 149.7 1325.78 143.9 1321.98 138.9C1318.18 133.7 1313.08 129.1 1306.68 125.1C1300.28 121.1 1291.38 116.1 1279.98 110.1C1263.58 101.7 1251.08 93.3 1242.48 84.9C1233.88 76.5 1229.58 65.6 1229.58 52.2C1229.58 37.4 1234.98 25.9 1245.78 17.7C1256.78 9.50003 1270.18 5.40002 1285.98 5.40002Z"/>
</mask>
<path d="M59.2001 94.8C80.0001 97.4 94.9001 103.1 103.9 111.9C112.9 120.5 117.4 130.8 117.4 142.8C117.4 152.4 114.6 160.9 109 168.3C103.6 175.7 95.7001 181.5 85.3001 185.7C74.9001 189.9 62.6001 192 48.4001 192C43.4001 192 39.1001 191.9 35.5001 191.7C23.1001 191.3 11.2001 191.1 -0.199902 191.1C-16.5999 191.1 -28.9999 191.4 -37.3999 192V186C-30.1999 185.6 -24.9999 184.8 -21.7999 183.6C-18.3999 182.4 -16.0999 180.1 -14.8999 176.7C-13.6999 173.3 -13.0999 167.8 -13.0999 160.2V41.4C-13.0999 33.8 -13.6999 28.3 -14.8999 24.9C-16.0999 21.5 -18.3999 19.2 -21.7999 18C-24.9999 16.8 -30.1999 16 -37.3999 15.6V9.60002C-28.9999 10.2 -16.7999 10.5 -0.799904 10.5L29.8001 10.2C33.2001 10 37.1001 9.90001 41.5001 9.90001C60.9001 9.90001 75.8001 13.7 86.2001 21.3C96.6001 28.7 101.8 38.6 101.8 51C101.8 60.6 98.4001 69.2 91.6001 76.8C84.8001 84.4 74.0001 90.2 59.2001 94.2V94.8ZM34.0001 15.6C28.6001 15.6 24.5001 16.3 21.7001 17.7C19.1001 19.1 17.3001 21.6 16.3001 25.2C15.3001 28.8 14.8001 34.2 14.8001 41.4V94.2H31.9001C47.3001 94.2 58.0001 90.7 64.0001 83.7C70.0001 76.7 73.0001 66.9 73.0001 54.3C73.0001 41.3 69.9001 31.6 63.7001 25.2C57.5001 18.8 47.6001 15.6 34.0001 15.6ZM34.3001 185.1C52.5001 185.1 65.9001 181.5 74.5001 174.3C83.1001 166.9 87.4001 156 87.4001 141.6C87.4001 127.6 83.4001 117.1 75.4001 110.1C67.4001 102.9 54.6001 99.3 37.0001 99.3H14.8001V160.2C14.8001 167.4 15.3001 172.7 16.3001 176.1C17.3001 179.5 19.1001 181.9 21.7001 183.3C24.5001 184.5 28.7001 185.1 34.3001 185.1Z" stroke="#FFBD3C" stroke-width="10" mask="url(#path-1-outside-1)"/>
<path d="M288.618 156.6C288.618 167 289.318 178.8 290.718 192C277.718 191.4 255.818 191.1 225.018 191.1C188.018 191.1 160.018 191.4 141.018 192V186C148.218 185.6 153.418 184.8 156.618 183.6C160.018 182.4 162.318 180.1 163.518 176.7C164.718 173.3 165.318 167.8 165.318 160.2V41.4C165.318 33.8 164.718 28.3 163.518 24.9C162.318 21.5 160.018 19.2 156.618 18C153.418 16.8 148.218 16 141.018 15.6V9.60002C160.018 10.2 188.018 10.5 225.018 10.5C253.018 10.5 272.918 10.2 284.718 9.60002C283.318 21.6 282.618 32.4 282.618 42C282.618 49.8 282.918 56 283.518 60.6H276.618C275.218 44.2 271.718 32.8 266.118 26.4C260.718 19.8 251.818 16.5 239.418 16.5H217.518C210.318 16.5 205.018 17.1 201.618 18.3C198.418 19.3 196.218 21.5 195.018 24.9C193.818 28.3 193.218 33.8 193.218 41.4V97.2H218.118C224.518 97.2 229.418 95.6 232.818 92.4C236.218 89 238.518 85.4 239.718 81.6C240.918 77.6 242.018 72.6 243.018 66.6H249.918C249.318 73.4 249.018 80.8 249.018 88.8V100.2C249.018 108 249.618 119.2 250.818 133.8H243.918C242.718 124.2 240.418 116.7 237.018 111.3C233.618 105.9 227.318 103.2 218.118 103.2H193.218V160.2C193.218 167.8 193.818 173.3 195.018 176.7C196.218 180.1 198.418 182.4 201.618 183.6C205.018 184.6 210.318 185.1 217.518 185.1H239.418C249.418 185.1 257.318 183.5 263.118 180.3C268.918 177.1 273.318 172 276.318 165C279.318 157.8 281.418 147.8 282.618 135H289.518C288.918 140.4 288.618 147.6 288.618 156.6Z" stroke="#FFBD3C" stroke-width="10" mask="url(#path-1-outside-1)"/>
<path d="M471.836 166.8C477.236 179.2 484.136 185.6 492.536 186V192C484.536 191.4 473.836 191.1 460.436 191.1C443.236 191.1 430.436 191.4 422.036 192V186C429.436 185.6 434.836 184.6 438.236 183C441.836 181.4 443.636 178.7 443.636 174.9C443.636 171.7 442.236 167 439.436 160.8L424.136 126.6H351.236L341.036 149.1C337.636 156.9 335.936 163.3 335.936 168.3C335.936 173.5 337.736 177.6 341.336 180.6C345.136 183.4 351.136 185.2 359.336 186V192C353.336 191.4 344.236 191.1 332.036 191.1C319.836 191.1 311.136 191.4 305.936 192V186C311.336 184.6 315.936 181.6 319.736 177C323.536 172.2 327.136 165.9 330.536 158.1L396.836 8.10002H401.636L471.836 166.8ZM421.736 120.6L387.836 44.4L353.636 120.6H421.736Z" stroke="#FFBD3C" stroke-width="10" mask="url(#path-1-outside-1)"/>
<path d="M673.103 15.6C666.103 16 660.903 17.1 657.503 18.9C654.103 20.5 651.803 23.3 650.603 27.3C649.403 31.1 648.803 36.8 648.803 44.4V110.7C648.803 124.5 647.803 136.3 645.803 146.1C644.003 155.7 640.903 164.1 636.503 171.3C631.703 178.9 624.703 185 615.503 189.6C606.503 194 596.203 196.2 584.603 196.2C564.003 196.2 548.203 191.8 537.203 183C528.403 175.2 522.503 166.3 519.503 156.3C516.503 146.3 515.003 131.4 515.003 111.6V41.4C515.003 33.8 514.403 28.3 513.203 24.9C512.003 21.5 509.703 19.2 506.303 18C503.103 16.8 497.903 16 490.703 15.6V9.60002C499.103 10.2 511.903 10.5 529.103 10.5C545.103 10.5 557.803 10.2 567.203 9.60002V15.6C560.003 16 554.703 16.8 551.303 18C548.103 19.2 545.903 21.5 544.703 24.9C543.503 28.3 542.903 33.8 542.903 41.4V116.7C542.903 131.5 543.903 143.8 545.903 153.6C547.903 163.2 552.103 171 558.503 177C565.103 182.8 574.703 185.7 587.303 185.7C607.303 185.7 621.403 179.4 629.603 166.8C637.803 154.2 641.903 136.6 641.903 114V44.4C641.903 33.6 639.903 26.2 635.903 22.2C632.103 18.2 625.003 16 614.603 15.6V9.60002C621.803 10.2 632.003 10.5 645.203 10.5C657.203 10.5 666.503 10.2 673.103 9.60002V15.6Z" stroke="#FFBD3C" stroke-width="10" mask="url(#path-1-outside-1)"/>
<path d="M859.764 9.60002C858.364 22.8 857.664 34.6 857.664 45C857.664 55.4 857.964 63.6 858.564 69.6H851.664C850.464 55.6 848.564 44.9 845.964 37.5C843.364 30.1 839.164 24.8 833.364 21.6C827.564 18.2 819.264 16.5 808.464 16.5H789.264V157.2C789.264 165.6 790.064 171.7 791.664 175.5C793.264 179.3 796.064 181.9 800.064 183.3C804.064 184.7 810.564 185.6 819.564 186V192C809.164 191.4 794.464 191.1 775.464 191.1C755.464 191.1 740.664 191.4 731.064 192V186C740.064 185.6 746.564 184.7 750.564 183.3C754.564 181.9 757.364 179.3 758.964 175.5C760.564 171.7 761.364 165.6 761.364 157.2V16.5H742.164C731.364 16.5 723.064 18.2 717.264 21.6C711.464 24.8 707.264 30.1 704.664 37.5C702.064 44.9 700.164 55.6 698.964 69.6H692.064C692.664 63.2 692.964 55 692.964 45C692.964 34.6 692.264 22.8 690.864 9.60002C707.464 10.2 735.664 10.5 775.464 10.5C815.064 10.5 843.164 10.2 859.764 9.60002Z" stroke="#FFBD3C" stroke-width="10" mask="url(#path-1-outside-1)"/>
<path d="M1015.72 10.8C1027.12 10.8 1034.82 10.4 1038.82 9.60002V15.9C1035.42 16.7 1032.32 18.6 1029.52 21.6C1026.72 24.6 1023.42 29.5 1019.62 36.3L972.522 120.6V160.2C972.522 167.8 973.122 173.3 974.322 176.7C975.522 180.1 977.722 182.4 980.922 183.6C984.322 184.8 989.622 185.6 996.822 186V192C987.622 191.4 974.922 191.1 958.722 191.1C941.522 191.1 928.722 191.4 920.322 192V186C927.522 185.6 932.722 184.8 935.922 183.6C939.322 182.4 941.622 180.1 942.822 176.7C944.022 173.3 944.622 167.8 944.622 160.2V129L886.722 32.7C882.922 26.3 879.722 22.1 877.122 20.1C874.722 17.9 872.122 16.5 869.322 15.9V9.60002C882.122 10.4 890.922 10.8 895.722 10.8C909.522 10.8 923.522 10.4 937.722 9.60002V15.9C930.922 15.9 925.722 16.5 922.122 17.7C918.522 18.7 916.722 21.1 916.722 24.9C916.722 28.3 918.422 33 921.822 39L967.122 114.6L1004.32 49.2C1008.72 41.2 1010.92 34.8 1010.92 30C1010.92 21.6 1004.02 16.9 990.222 15.9V9.60002C997.622 10.4 1006.12 10.8 1015.72 10.8Z" stroke="#FFBD3C" stroke-width="10" mask="url(#path-1-outside-1)"/>
<path d="M1196.62 15.6C1189.42 16 1184.12 16.8 1180.72 18C1177.52 19.2 1175.32 21.5 1174.12 24.9C1172.92 28.3 1172.32 33.8 1172.32 41.4V160.2C1172.32 167.8 1172.92 173.3 1174.12 176.7C1175.32 180.1 1177.52 182.4 1180.72 183.6C1184.12 184.8 1189.42 185.6 1196.62 186V192C1187.42 191.4 1174.72 191.1 1158.52 191.1C1141.32 191.1 1128.52 191.4 1120.12 192V186C1127.32 185.6 1132.52 184.8 1135.72 183.6C1139.12 182.4 1141.42 180.1 1142.62 176.7C1143.82 173.3 1144.42 167.8 1144.42 160.2V41.4C1144.42 33.8 1143.82 28.3 1142.62 24.9C1141.42 21.5 1139.12 19.2 1135.72 18C1132.52 16.8 1127.32 16 1120.12 15.6V9.60002C1128.52 10.2 1141.32 10.5 1158.52 10.5C1174.52 10.5 1187.22 10.2 1196.62 9.60002V15.6Z" stroke="#FFBD3C" stroke-width="10" mask="url(#path-1-outside-1)"/>
<path d="M1285.98 5.40002C1294.78 5.40002 1301.68 6.40001 1306.68 8.40001C1311.88 10.2 1317.18 12.9 1322.58 16.5C1326.98 19.3 1330.38 20.7 1332.78 20.7C1334.58 20.7 1335.98 19.7 1336.98 17.7C1337.98 15.5 1338.78 12.1 1339.38 7.50003H1346.28C1345.28 17.9 1344.78 36.3 1344.78 62.7H1337.88C1336.68 48.3 1331.98 36.1 1323.78 26.1C1315.78 16.1 1304.08 11.1 1288.68 11.1C1278.08 11.1 1269.28 13.9 1262.28 19.5C1255.48 25.1 1252.08 32.2 1252.08 40.8C1252.08 47 1253.58 52.4 1256.58 57C1259.78 61.6 1263.78 65.6 1268.58 69C1273.58 72.2 1280.58 76.2 1289.58 81L1299.48 86.4C1311.88 93 1321.78 98.9 1329.18 104.1C1336.78 109.3 1342.88 115.3 1347.48 122.1C1352.08 128.7 1354.38 136.4 1354.38 145.2C1354.38 161.4 1348.48 174 1336.68 183C1325.08 191.8 1310.48 196.2 1292.88 196.2C1283.28 196.2 1275.38 195.2 1269.18 193.2C1263.18 191.2 1257.38 188.5 1251.78 185.1C1247.38 182.3 1243.98 180.9 1241.58 180.9C1239.78 180.9 1238.38 182 1237.38 184.2C1236.38 186.2 1235.58 189.5 1234.98 194.1H1228.08C1228.88 184.3 1229.28 162.3 1229.28 128.1H1236.18C1237.58 146.7 1242.58 161.7 1251.18 173.1C1259.78 184.5 1272.98 190.2 1290.78 190.2C1300.78 190.2 1309.38 187.4 1316.58 181.8C1323.98 176 1327.68 167.5 1327.68 156.3C1327.68 149.7 1325.78 143.9 1321.98 138.9C1318.18 133.7 1313.08 129.1 1306.68 125.1C1300.28 121.1 1291.38 116.1 1279.98 110.1C1263.58 101.7 1251.08 93.3 1242.48 84.9C1233.88 76.5 1229.58 65.6 1229.58 52.2C1229.58 37.4 1234.98 25.9 1245.78 17.7C1256.78 9.50003 1270.18 5.40002 1285.98 5.40002Z" stroke="#FFBD3C" stroke-width="10" mask="url(#path-1-outside-1)"/>
</g>
<defs>
<filter id="filter0_d" x="-46.3999" y="0.400024" width="1409.78" height="214.8" filterUnits="userSpaceOnUse" color-interpolation-filters="sRGB">
<feFlood flood-opacity="0" result="BackgroundImageFix"/>
<feColorMatrix in="SourceAlpha" type="matrix" values="0 0 0 0 0 0 0 0 0 0 0 0 0 0 0 0 0 0 127 0"/>
<feOffset dy="10"/>
<feGaussianBlur stdDeviation="2"/>
<feColorMatrix type="matrix" values="0 0 0 0 0.12549 0 0 0 0 0.12549 0 0 0 0 0.12549 0 0 0 1 0"/>
<feBlend mode="normal" in2="BackgroundImageFix" result="effect1_dropShadow"/>
<feBlend mode="normal" in="SourceGraphic" in2="effect1_dropShadow" result="shape"/>
</filter>
</defs>
</svg>
