<svg width="1290" height="244" viewBox="0 0 1290 244" fill="none" xmlns="http://www.w3.org/2000/svg">
<g filter="url(#filter0_d)">
<mask id="path-1-outside-1" maskUnits="userSpaceOnUse" x="4" y="0" width="1282" height="230" fill="black">
<rect fill="white" x="4" width="1282" height="230"/>
<path d="M221.8 13.75C213.633 14.2167 207.567 15.5 203.6 17.6C199.633 19.4667 196.95 22.7333 195.55 27.4C194.15 31.8333 193.45 38.4833 193.45 47.35V221.3H185.4L45.4 27.4V178.95C45.4 188.05 46.1 194.817 47.5 199.25C49.1333 203.683 52.1667 206.95 56.6 209.05C61.0333 210.917 67.9167 212.083 77.25 212.55V219.55C68.85 218.85 56.95 218.5 41.55 218.5C27.55 218.5 16.7 218.85 9 219.55V212.55C17.1667 212.083 23.2333 210.917 27.2 209.05C31.1667 206.95 33.85 203.683 35.25 199.25C36.65 194.583 37.35 187.817 37.35 178.95V43.85C37.35 34.9833 36.65 28.5667 35.25 24.6C33.85 20.6333 31.1667 17.95 27.2 16.55C23.4667 15.15 17.4 14.2167 9 13.75V6.75C16.7 7.45 27.55 7.8 41.55 7.8C54.15 7.8 64.8833 7.45 73.75 6.75L185.4 162.15V47.35C185.4 38.25 184.583 31.4833 182.95 27.05C181.55 22.6167 178.633 19.4667 174.2 17.6C169.767 15.5 162.883 14.2167 153.55 13.75V6.75C161.95 7.45 173.85 7.8 189.25 7.8C203.25 7.8 214.1 7.45 221.8 6.75V13.75Z"/>
<path d="M413.411 190.15C419.711 204.617 427.761 212.083 437.561 212.55V219.55C428.228 218.85 415.745 218.5 400.111 218.5C380.045 218.5 365.111 218.85 355.311 219.55V212.55C363.945 212.083 370.245 210.917 374.211 209.05C378.411 207.183 380.511 204.033 380.511 199.6C380.511 195.867 378.878 190.383 375.611 183.15L357.761 143.25H272.711L260.811 169.5C256.845 178.6 254.861 186.067 254.861 191.9C254.861 197.967 256.961 202.75 261.161 206.25C265.595 209.517 272.595 211.617 282.161 212.55V219.55C275.161 218.85 264.545 218.5 250.311 218.5C236.078 218.5 225.928 218.85 219.861 219.55V212.55C226.161 210.917 231.528 207.417 235.961 202.05C240.395 196.45 244.595 189.1 248.561 180L325.911 5H331.511L413.411 190.15ZM354.961 136.25L315.411 47.35L275.511 136.25H354.961Z"/>
<path d="M629.812 6.75C628.179 22.15 627.362 35.9167 627.362 48.05C627.362 60.1833 627.713 69.75 628.413 76.75H620.362C618.962 60.4167 616.746 47.9333 613.712 39.3C610.679 30.6667 605.779 24.4833 599.013 20.75C592.246 16.7833 582.563 14.8 569.963 14.8H547.562V178.95C547.562 188.75 548.496 195.867 550.362 200.3C552.229 204.733 555.496 207.767 560.162 209.4C564.829 211.033 572.412 212.083 582.912 212.55V219.55C570.779 218.85 553.629 218.5 531.462 218.5C508.129 218.5 490.863 218.85 479.663 219.55V212.55C490.163 212.083 497.746 211.033 502.413 209.4C507.079 207.767 510.346 204.733 512.212 200.3C514.079 195.867 515.013 188.75 515.013 178.95V14.8H492.612C480.012 14.8 470.329 16.7833 463.562 20.75C456.796 24.4833 451.896 30.6667 448.862 39.3C445.829 47.9333 443.612 60.4167 442.212 76.75H434.162C434.862 69.2833 435.212 59.7167 435.212 48.05C435.212 35.9167 434.396 22.15 432.762 6.75C452.129 7.45 485.029 7.8 531.462 7.8C577.662 7.8 610.446 7.45 629.812 6.75Z"/>
<path d="M863.213 13.75C855.047 14.2167 848.98 15.5 845.013 17.6C841.047 19.4667 838.363 22.7333 836.963 27.4C835.563 31.8333 834.863 38.4833 834.863 47.35V124.7C834.863 140.8 833.697 154.567 831.363 166C829.263 177.2 825.647 187 820.513 195.4C814.913 204.267 806.747 211.383 796.013 216.75C785.513 221.883 773.497 224.45 759.963 224.45C735.93 224.45 717.497 219.317 704.663 209.05C694.397 199.95 687.513 189.567 684.013 177.9C680.513 166.233 678.763 148.85 678.763 125.75V43.85C678.763 34.9833 678.063 28.5667 676.663 24.6C675.263 20.6333 672.58 17.95 668.613 16.55C664.88 15.15 658.813 14.2167 650.413 13.75V6.75C660.213 7.45 675.147 7.8 695.213 7.8C713.88 7.8 728.697 7.45 739.663 6.75V13.75C731.263 14.2167 725.08 15.15 721.113 16.55C717.38 17.95 714.813 20.6333 713.413 24.6C712.013 28.5667 711.313 34.9833 711.313 43.85V131.7C711.313 148.967 712.48 163.317 714.813 174.75C717.147 185.95 722.047 195.05 729.513 202.05C737.213 208.817 748.413 212.2 763.113 212.2C786.447 212.2 802.897 204.85 812.463 190.15C822.03 175.45 826.813 154.917 826.813 128.55V47.35C826.813 34.75 824.48 26.1167 819.813 21.45C815.38 16.7833 807.097 14.2167 794.963 13.75V6.75C803.363 7.45 815.263 7.8 830.663 7.8C844.663 7.8 855.513 7.45 863.213 6.75V13.75Z"/>
<path d="M1093.23 204.85C1088.8 211.15 1083.67 216.05 1077.83 219.55C1072.23 222.817 1065.47 224.45 1057.53 224.45C1037.93 224.45 1025.92 215.583 1021.48 197.85L1010.63 154.1C1007.37 141.033 1002.47 132.283 995.934 127.85C989.634 123.417 980.184 121.2 967.584 121.2H947.634V182.45C947.634 191.317 948.334 197.733 949.734 201.7C951.134 205.667 953.701 208.35 957.434 209.75C961.401 211.15 967.584 212.083 975.984 212.55V219.55C965.251 218.85 950.434 218.5 931.534 218.5C911.468 218.5 896.534 218.85 886.734 219.55V212.55C895.134 212.083 901.201 211.15 904.934 209.75C908.901 208.35 911.584 205.667 912.984 201.7C914.384 197.733 915.084 191.317 915.084 182.45V43.85C915.084 34.9833 914.384 28.5667 912.984 24.6C911.584 20.6333 908.901 17.95 904.934 16.55C901.201 15.15 895.134 14.2167 886.734 13.75V6.75C896.534 7.45 910.768 7.8 929.434 7.8L965.134 7.45001C969.101 7.21667 973.651 7.09999 978.784 7.09999C1004.92 7.09999 1024.87 12 1038.63 21.8C1052.63 31.6 1059.63 44.3167 1059.63 59.95C1059.63 73.4833 1054.15 85.85 1043.18 97.05C1032.45 108.25 1014.72 115.367 989.984 118.4C994.651 118.867 998.618 119.333 1001.88 119.8C1014.25 121.667 1024.05 125.4 1031.28 131C1038.52 136.6 1043.65 145.583 1046.68 157.95L1054.38 189.8C1056.25 197.967 1058.23 203.8 1060.33 207.3C1062.67 210.567 1065.58 212.2 1069.08 212.2C1074.92 212.2 1081.33 208.233 1088.33 200.3L1093.23 204.85ZM970.034 13.75C963.734 13.75 958.951 14.5667 955.684 16.2C952.651 17.8333 950.551 20.75 949.384 24.95C948.218 29.15 947.634 35.45 947.634 43.85V114.2H971.084C991.618 114.2 1005.62 109.883 1013.08 101.25C1020.78 92.3833 1024.63 79.9 1024.63 63.8C1024.63 47 1020.32 34.5167 1011.68 26.35C1003.28 17.95 989.401 13.75 970.034 13.75Z"/>
<path d="M1277.34 178.25C1277.34 190.383 1278.16 204.15 1279.79 219.55C1264.63 218.85 1239.08 218.5 1203.14 218.5C1159.98 218.5 1127.31 218.85 1105.14 219.55V212.55C1113.54 212.083 1119.61 211.15 1123.34 209.75C1127.31 208.35 1129.99 205.667 1131.39 201.7C1132.79 197.733 1133.49 191.317 1133.49 182.45V43.85C1133.49 34.9833 1132.79 28.5667 1131.39 24.6C1129.99 20.6333 1127.31 17.95 1123.34 16.55C1119.61 15.15 1113.54 14.2167 1105.14 13.75V6.75C1127.31 7.45 1159.98 7.8 1203.14 7.8C1235.81 7.8 1259.03 7.45 1272.79 6.75C1271.16 20.75 1270.34 33.35 1270.34 44.55C1270.34 53.65 1270.69 60.8833 1271.39 66.25H1263.34C1261.71 47.1167 1257.63 33.8167 1251.09 26.35C1244.79 18.65 1234.41 14.8 1219.94 14.8H1194.39C1185.99 14.8 1179.81 15.5 1175.84 16.9C1172.11 18.0667 1169.54 20.6333 1168.14 24.6C1166.74 28.5667 1166.04 34.9833 1166.04 43.85V108.95H1195.09C1202.56 108.95 1208.28 107.083 1212.24 103.35C1216.21 99.3833 1218.89 95.1833 1220.29 90.75C1221.69 86.0833 1222.98 80.25 1224.14 73.25H1232.19C1231.49 81.1833 1231.14 89.8167 1231.14 99.15V112.45C1231.14 121.55 1231.84 134.617 1233.24 151.65H1225.19C1223.79 140.45 1221.11 131.7 1217.14 125.4C1213.18 119.1 1205.83 115.95 1195.09 115.95H1166.04V182.45C1166.04 191.317 1166.74 197.733 1168.14 201.7C1169.54 205.667 1172.11 208.35 1175.84 209.75C1179.81 210.917 1185.99 211.5 1194.39 211.5H1219.94C1231.61 211.5 1240.83 209.633 1247.59 205.9C1254.36 202.167 1259.49 196.217 1262.99 188.05C1266.49 179.65 1268.94 167.983 1270.34 153.05H1278.39C1277.69 159.35 1277.34 167.75 1277.34 178.25Z"/>
</mask>
<path d="M221.8 13.75C213.633 14.2167 207.567 15.5 203.6 17.6C199.633 19.4667 196.95 22.7333 195.55 27.4C194.15 31.8333 193.45 38.4833 193.45 47.35V221.3H185.4L45.4 27.4V178.95C45.4 188.05 46.1 194.817 47.5 199.25C49.1333 203.683 52.1667 206.95 56.6 209.05C61.0333 210.917 67.9167 212.083 77.25 212.55V219.55C68.85 218.85 56.95 218.5 41.55 218.5C27.55 218.5 16.7 218.85 9 219.55V212.55C17.1667 212.083 23.2333 210.917 27.2 209.05C31.1667 206.95 33.85 203.683 35.25 199.25C36.65 194.583 37.35 187.817 37.35 178.95V43.85C37.35 34.9833 36.65 28.5667 35.25 24.6C33.85 20.6333 31.1667 17.95 27.2 16.55C23.4667 15.15 17.4 14.2167 9 13.75V6.75C16.7 7.45 27.55 7.8 41.55 7.8C54.15 7.8 64.8833 7.45 73.75 6.75L185.4 162.15V47.35C185.4 38.25 184.583 31.4833 182.95 27.05C181.55 22.6167 178.633 19.4667 174.2 17.6C169.767 15.5 162.883 14.2167 153.55 13.75V6.75C161.95 7.45 173.85 7.8 189.25 7.8C203.25 7.8 214.1 7.45 221.8 6.75V13.75Z" stroke="#FFBD3C" stroke-width="10" mask="url(#path-1-outside-1)"/>
<path d="M413.411 190.15C419.711 204.617 427.761 212.083 437.561 212.55V219.55C428.228 218.85 415.745 218.5 400.111 218.5C380.045 218.5 365.111 218.85 355.311 219.55V212.55C363.945 212.083 370.245 210.917 374.211 209.05C378.411 207.183 380.511 204.033 380.511 199.6C380.511 195.867 378.878 190.383 375.611 183.15L357.761 143.25H272.711L260.811 169.5C256.845 178.6 254.861 186.067 254.861 191.9C254.861 197.967 256.961 202.75 261.161 206.25C265.595 209.517 272.595 211.617 282.161 212.55V219.55C275.161 218.85 264.545 218.5 250.311 218.5C236.078 218.5 225.928 218.85 219.861 219.55V212.55C226.161 210.917 231.528 207.417 235.961 202.05C240.395 196.45 244.595 189.1 248.561 180L325.911 5H331.511L413.411 190.15ZM354.961 136.25L315.411 47.35L275.511 136.25H354.961Z" stroke="#FFBD3C" stroke-width="10" mask="url(#path-1-outside-1)"/>
<path d="M629.812 6.75C628.179 22.15 627.362 35.9167 627.362 48.05C627.362 60.1833 627.713 69.75 628.413 76.75H620.362C618.962 60.4167 616.746 47.9333 613.712 39.3C610.679 30.6667 605.779 24.4833 599.013 20.75C592.246 16.7833 582.563 14.8 569.963 14.8H547.562V178.95C547.562 188.75 548.496 195.867 550.362 200.3C552.229 204.733 555.496 207.767 560.162 209.4C564.829 211.033 572.412 212.083 582.912 212.55V219.55C570.779 218.85 553.629 218.5 531.462 218.5C508.129 218.5 490.863 218.85 479.663 219.55V212.55C490.163 212.083 497.746 211.033 502.413 209.4C507.079 207.767 510.346 204.733 512.212 200.3C514.079 195.867 515.013 188.75 515.013 178.95V14.8H492.612C480.012 14.8 470.329 16.7833 463.562 20.75C456.796 24.4833 451.896 30.6667 448.862 39.3C445.829 47.9333 443.612 60.4167 442.212 76.75H434.162C434.862 69.2833 435.212 59.7167 435.212 48.05C435.212 35.9167 434.396 22.15 432.762 6.75C452.129 7.45 485.029 7.8 531.462 7.8C577.662 7.8 610.446 7.45 629.812 6.75Z" stroke="#FFBD3C" stroke-width="10" mask="url(#path-1-outside-1)"/>
<path d="M863.213 13.75C855.047 14.2167 848.98 15.5 845.013 17.6C841.047 19.4667 838.363 22.7333 836.963 27.4C835.563 31.8333 834.863 38.4833 834.863 47.35V124.7C834.863 140.8 833.697 154.567 831.363 166C829.263 177.2 825.647 187 820.513 195.4C814.913 204.267 806.747 211.383 796.013 216.75C785.513 221.883 773.497 224.45 759.963 224.45C735.93 224.45 717.497 219.317 704.663 209.05C694.397 199.95 687.513 189.567 684.013 177.9C680.513 166.233 678.763 148.85 678.763 125.75V43.85C678.763 34.9833 678.063 28.5667 676.663 24.6C675.263 20.6333 672.58 17.95 668.613 16.55C664.88 15.15 658.813 14.2167 650.413 13.75V6.75C660.213 7.45 675.147 7.8 695.213 7.8C713.88 7.8 728.697 7.45 739.663 6.75V13.75C731.263 14.2167 725.08 15.15 721.113 16.55C717.38 17.95 714.813 20.6333 713.413 24.6C712.013 28.5667 711.313 34.9833 711.313 43.85V131.7C711.313 148.967 712.48 163.317 714.813 174.75C717.147 185.95 722.047 195.05 729.513 202.05C737.213 208.817 748.413 212.2 763.113 212.2C786.447 212.2 802.897 204.85 812.463 190.15C822.03 175.45 826.813 154.917 826.813 128.55V47.35C826.813 34.75 824.48 26.1167 819.813 21.45C815.38 16.7833 807.097 14.2167 794.963 13.75V6.75C803.363 7.45 815.263 7.8 830.663 7.8C844.663 7.8 855.513 7.45 863.213 6.75V13.75Z" stroke="#FFBD3C" stroke-width="10" mask="url(#path-1-outside-1)"/>
<path d="M1093.23 204.85C1088.8 211.15 1083.67 216.05 1077.83 219.55C1072.23 222.817 1065.47 224.45 1057.53 224.45C1037.93 224.45 1025.92 215.583 1021.48 197.85L1010.63 154.1C1007.37 141.033 1002.47 132.283 995.934 127.85C989.634 123.417 980.184 121.2 967.584 121.2H947.634V182.45C947.634 191.317 948.334 197.733 949.734 201.7C951.134 205.667 953.701 208.35 957.434 209.75C961.401 211.15 967.584 212.083 975.984 212.55V219.55C965.251 218.85 950.434 218.5 931.534 218.5C911.468 218.5 896.534 218.85 886.734 219.55V212.55C895.134 212.083 901.201 211.15 904.934 209.75C908.901 208.35 911.584 205.667 912.984 201.7C914.384 197.733 915.084 191.317 915.084 182.45V43.85C915.084 34.9833 914.384 28.5667 912.984 24.6C911.584 20.6333 908.901 17.95 904.934 16.55C901.201 15.15 895.134 14.2167 886.734 13.75V6.75C896.534 7.45 910.768 7.8 929.434 7.8L965.134 7.45001C969.101 7.21667 973.651 7.09999 978.784 7.09999C1004.92 7.09999 1024.87 12 1038.63 21.8C1052.63 31.6 1059.63 44.3167 1059.63 59.95C1059.63 73.4833 1054.15 85.85 1043.18 97.05C1032.45 108.25 1014.72 115.367 989.984 118.4C994.651 118.867 998.618 119.333 1001.88 119.8C1014.25 121.667 1024.05 125.4 1031.28 131C1038.52 136.6 1043.65 145.583 1046.68 157.95L1054.38 189.8C1056.25 197.967 1058.23 203.8 1060.33 207.3C1062.67 210.567 1065.58 212.2 1069.08 212.2C1074.92 212.2 1081.33 208.233 1088.33 200.3L1093.23 204.85ZM970.034 13.75C963.734 13.75 958.951 14.5667 955.684 16.2C952.651 17.8333 950.551 20.75 949.384 24.95C948.218 29.15 947.634 35.45 947.634 43.85V114.2H971.084C991.618 114.2 1005.62 109.883 1013.08 101.25C1020.78 92.3833 1024.63 79.9 1024.63 63.8C1024.63 47 1020.32 34.5167 1011.68 26.35C1003.28 17.95 989.401 13.75 970.034 13.75Z" stroke="#FFBD3C" stroke-width="10" mask="url(#path-1-outside-1)"/>
<path d="M1277.34 178.25C1277.34 190.383 1278.16 204.15 1279.79 219.55C1264.63 218.85 1239.08 218.5 1203.14 218.5C1159.98 218.5 1127.31 218.85 1105.14 219.55V212.55C1113.54 212.083 1119.61 211.15 1123.34 209.75C1127.31 208.35 1129.99 205.667 1131.39 201.7C1132.79 197.733 1133.49 191.317 1133.49 182.45V43.85C1133.49 34.9833 1132.79 28.5667 1131.39 24.6C1129.99 20.6333 1127.31 17.95 1123.34 16.55C1119.61 15.15 1113.54 14.2167 1105.14 13.75V6.75C1127.31 7.45 1159.98 7.8 1203.14 7.8C1235.81 7.8 1259.03 7.45 1272.79 6.75C1271.16 20.75 1270.34 33.35 1270.34 44.55C1270.34 53.65 1270.69 60.8833 1271.39 66.25H1263.34C1261.71 47.1167 1257.63 33.8167 1251.09 26.35C1244.79 18.65 1234.41 14.8 1219.94 14.8H1194.39C1185.99 14.8 1179.81 15.5 1175.84 16.9C1172.11 18.0667 1169.54 20.6333 1168.14 24.6C1166.74 28.5667 1166.04 34.9833 1166.04 43.85V108.95H1195.09C1202.56 108.95 1208.28 107.083 1212.24 103.35C1216.21 99.3833 1218.89 95.1833 1220.29 90.75C1221.69 86.0833 1222.98 80.25 1224.14 73.25H1232.19C1231.49 81.1833 1231.14 89.8167 1231.14 99.15V112.45C1231.14 121.55 1231.84 134.617 1233.24 151.65H1225.19C1223.79 140.45 1221.11 131.7 1217.14 125.4C1213.18 119.1 1205.83 115.95 1195.09 115.95H1166.04V182.45C1166.04 191.317 1166.74 197.733 1168.14 201.7C1169.54 205.667 1172.11 208.35 1175.84 209.75C1179.81 210.917 1185.99 211.5 1194.39 211.5H1219.94C1231.61 211.5 1240.83 209.633 1247.59 205.9C1254.36 202.167 1259.49 196.217 1262.99 188.05C1266.49 179.65 1268.94 167.983 1270.34 153.05H1278.39C1277.69 159.35 1277.34 167.75 1277.34 178.25Z" stroke="#FFBD3C" stroke-width="10" mask="url(#path-1-outside-1)"/>
</g>
<defs>
<filter id="filter0_d" x="0" y="0" width="1289.38" height="243.45" filterUnits="userSpaceOnUse" color-interpolation-filters="sRGB">
<feFlood flood-opacity="0" result="BackgroundImageFix"/>
<feColorMatrix in="SourceAlpha" type="matrix" values="0 0 0 0 0 0 0 0 0 0 0 0 0 0 0 0 0 0 127 0"/>
<feOffset dy="10"/>
<feGaussianBlur stdDeviation="2"/>
<feColorMatrix type="matrix" values="0 0 0 0 0 0 0 0 0 0 0 0 0 0 0 0 0 0 1 0"/>
<feBlend mode="normal" in2="BackgroundImageFix" result="effect1_dropShadow"/>
<feBlend mode="normal" in="SourceGraphic" in2="effect1_dropShadow" result="shape"/>
</filter>
</defs>
</svg>
